<?xml version="1.0" standalone="no"?>
<!DOCTYPE svg PUBLIC "-//W3C//DTD SVG 20010904//EN"
 "http://www.w3.org/TR/2001/REC-SVG-20010904/DTD/svg10.dtd">
<svg version="1.0" xmlns="http://www.w3.org/2000/svg"
 width="96.000000pt" height="96.000000pt" viewBox="0 0 96.000000 96.000000"
 preserveAspectRatio="xMidYMid meet">
<metadata>
Created by potrace 1.11, written by Peter Selinger 2001-2013
</metadata>
<g transform="translate(0.000000,96.000000) scale(0.100000,-0.100000)"
fill="#000000" stroke="none">
<path d="M375 946 c-116 -29 -225 -104 -289 -201 -55 -82 -77 -155 -78 -255
-1 -169 76 -313 218 -406 256 -166 606 -45 703 243 11 32 22 82 25 111 l4 52
-216 0 c-224 0 -265 -7 -228 -35 16 -12 57 -15 203 -15 l183 0 0 -25 c0 -37
-46 -143 -84 -195 -76 -104 -224 -170 -364 -161 l-22 1 1 413 c0 228 4 420 9
427 12 19 120 7 195 -21 45 -17 77 -40 134 -95 42 -41 80 -70 88 -67 64 25
-100 178 -235 219 -64 20 -186 25 -247 10z"/>
</g>
</svg>
